<svg width="23" height="18" viewBox="0 0 23 18" fill="none" xmlns="http://www.w3.org/2000/svg">
<path d="M14.2808 9.20217L15.5803 7.83905C15.6749 8.21011 15.7303 8.59805 15.7303 9.00005C15.7303 11.4814 13.8059 13.5 11.4402 13.5C11.057 13.5 10.6871 13.4419 10.3334 13.3427L11.6329 11.9796C13.0538 11.878 14.1839 10.6926 14.2808 9.20217ZM22.7904 8.63573C22.7024 8.4698 21.4551 6.17723 19.0169 4.23436L17.9764 5.3258C19.7542 6.69698 20.8807 8.29617 21.3242 9.00117C20.4768 10.3547 17.1523 15 11.4402 15C10.5836 15 9.78712 14.8851 9.03761 14.7017L7.86266 15.9342C8.94287 16.2816 10.1301 16.5 11.4402 16.5C18.9252 16.5 22.6361 9.65555 22.7904 9.36436C22.9105 9.13767 22.9105 8.86242 22.7904 8.63573ZM19.8109 1.2803L4.08059 17.7803C3.94098 17.9267 3.75794 18 3.57507 18C3.39221 18 3.20916 17.9267 3.06956 17.7803C2.79017 17.4872 2.79017 17.0127 3.06956 16.7198L5.07088 14.6205C1.83544 12.5717 0.191445 9.5558 0.0900918 9.36436C-0.0300306 9.13767 -0.0300306 8.86223 0.0900918 8.63555C0.244356 8.34455 3.95528 1.50005 11.4402 1.50005C13.3756 1.50005 15.052 1.96317 16.485 2.64792L18.7999 0.219797C19.0793 -0.0732656 19.5317 -0.0732656 19.8109 0.219797C20.0901 0.512859 20.0903 0.987422 19.8109 1.2803ZM6.13715 13.5021L7.94739 11.6033C7.44741 10.8675 7.15015 9.97036 7.15015 9.00005C7.15015 6.51867 9.07461 4.50005 11.4402 4.50005C12.3653 4.50005 13.2206 4.81186 13.922 5.33611L15.3859 3.80067C14.2293 3.31486 12.9151 3.00005 11.4402 3.00005C5.72816 3.00005 2.4037 7.64536 1.55641 8.99892C2.09446 9.8543 3.64103 12.0195 6.13715 13.5021ZM8.98541 10.5143L12.8838 6.42511C12.4586 6.16167 11.969 6.00005 11.4402 6.00005C9.86327 6.00005 8.58018 7.34592 8.58018 9.00005C8.58018 9.55467 8.73426 10.0682 8.98541 10.5143Z" fill="#212121"/>
</svg>
