<svg width="25" height="24" viewBox="0 0 25 24" fill="none" xmlns="http://www.w3.org/2000/svg">
<path d="M19.8501 23.25H5.1501C3.7626 23.25 2.6001 22.125 2.6001 20.7V9.33751C2.6001 8.58751 2.9376 7.87501 3.5376 7.38751L10.8876 1.3125C11.8251 0.525003 13.1751 0.525003 14.1126 1.3125L21.4626 7.35001C22.0626 7.83751 22.4001 8.55001 22.4001 9.30001V20.6625C22.4001 22.125 21.2376 23.25 19.8501 23.25ZM12.5001 2.25C12.2751 2.25 12.0126 2.325 11.8251 2.475L4.4751 8.55001C4.2501 8.73751 4.1001 9.03751 4.1001 9.33751V20.7C4.1001 21.2625 4.5501 21.75 5.1501 21.75H19.8501C20.4126 21.75 20.9001 21.3 20.9001 20.7V9.33751C20.9001 9.03751 20.7501 8.73751 20.5251 8.55001L13.1751 2.475C12.9876 2.325 12.7251 2.25 12.5001 2.25Z" fill="#9D9FA0"/>
<path d="M17 19.95H8C7.5875 19.95 7.25 19.6125 7.25 19.2C7.25 18.7875 7.5875 18.45 8 18.45H17C17.4125 18.45 17.75 18.7875 17.75 19.2C17.75 19.6125 17.4125 19.95 17 19.95Z" fill="#9D9FA0"/>
</svg>
